<?xml version="1.0" standalone="no"?><!-- Generator: Gravit.io --><svg xmlns="http://www.w3.org/2000/svg" xmlns:xlink="http://www.w3.org/1999/xlink" style="isolation:isolate" viewBox="0 0 560 500" width="560" height="500"><defs><clipPath id="_clipPath_riIlSvUFIPGQRh3PUbNk87G0e14LbpME"><rect width="560" height="500"/></clipPath></defs><g clip-path="url(#_clipPath_riIlSvUFIPGQRh3PUbNk87G0e14LbpME)"><g><path d=" M 280 423 L 280 423 C 136.668 423 63.49 333.803 20.3 270.5 C 59.264 215.493 136.668 118 280 118 L 280 423 L 280 423 L 280 423 Z " fill="rgb(0,0,0)"/></g><path d=" M 418.905 154 C 433.817 162.473 447.401 171.98 459.761 182 L 459.761 182 L 280 182 L 280 154 L 418.905 154 Z  M 370.96 132.5 C 344.083 123.45 313.884 118 280 118 L 280 132.5 L 370.96 132.5 Z  M 483.831 203.5 C 493.711 213.175 502.608 222.979 510.604 232.5 L 510.604 232.5 L 280 232.5 L 280 203.5 L 483.831 203.5 L 483.831 203.5 Z  M 527.651 254 C 532.009 259.797 536.005 265.336 539.662 270.5 C 536.135 275.67 532.408 281.013 528.459 286.466 L 528.459 286.466 L 280 286.466 L 280 254 L 527.651 254 L 527.651 254 L 527.651 254 Z  M 512.037 307.966 C 503.641 318.343 494.397 328.818 484.167 339 L 484.167 339 L 280 339 L 280 307.966 L 512.037 307.966 L 512.037 307.966 L 512.037 307.966 L 512.037 307.966 Z  M 460.355 360.5 C 449.85 369.057 438.475 377.15 426.132 384.5 L 426.132 384.5 L 280 384.5 L 280 360.5 L 460.355 360.5 L 460.355 360.5 L 460.355 360.5 L 460.355 360.5 L 460.355 360.5 Z  M 380.87 406 C 351.768 416.595 318.402 423 280 423 L 280 423 L 280 423 L 280 423 L 280 406 L 380.87 406 L 380.87 406 L 380.87 406 L 380.87 406 L 380.87 406 L 380.87 406 Z " fill-rule="evenodd" fill="rgb(0,0,0)"/><path d=" M 349.694 184.433 C 375.458 204.59 391.981 235.665 391.981 270.5 C 391.981 331.211 341.796 380.5 279.981 380.5 C 258.842 380.5 239.063 374.736 222.198 364.704" fill="rgb(152,0,0)"/><path d=" M 222.198 364.704 C 189.711 345.453 167.981 310.449 167.981 270.5 C 167.981 209.789 218.167 160.5 279.981 160.5 C 306.327 160.5 330.561 169.454 349.694 184.433" fill="rgb(255,0,0)"/></g></svg>